<?xml version="1.0" encoding="UTF-8"?>
<svg width="86px" height="78px" viewBox="0 0 86 78" version="1.1" xmlns="http://www.w3.org/2000/svg" xmlns:xlink="http://www.w3.org/1999/xlink">
    <!-- Generator: Sketch 63.1 (92452) - https://sketch.com -->
    <title>EasyChecking_Icon</title>
    <desc>Created with Sketch.</desc>
    <g id="Symbols" stroke="none" stroke-width="1" fill="none" fill-rule="evenodd">
        <g id="EasyChecking_Icon">
            <g>
                <path d="M30.816811,5.77827559 C35.6442938,3.92126602 40.9773251,2.89024035 46.5830928,2.89024035 C68.349576,2.89024035 86,18.4133086 86,37.5558731 C86,47.6712674 81.0700606,56.7755101 73.2126541,63.1133853 L69.7911829,76.9049897 C69.6290803,77.5559852 69.0643667,78 68.4010448,78 L62.0367139,78 C61.3729109,78 60.8081974,77.5559852 60.6465758,76.9049897 L59.0462335,70.4522329 C55.1278721,71.5986248 50.9401414,72.2215059 46.5830928,72.2215059 C42.2294114,72.2215059 38.0421617,71.5986248 34.1233192,70.4522329 L32.523458,76.9049897 C32.3618364,77.5559852 31.7966418,78 31.1328389,78 L24.768989,78 C24.105186,78 23.5399915,77.5559852 23.3783699,76.9049897 L19.9573797,63.1090227 C16.1568674,60.0440602 13.0403607,56.3314953 10.8358615,52.1695835 C9.81273911,50.2369557 7.94831868,49.1104377 5.77556659,49.1104377 L4.30173166,49.1104377 C1.93561089,49.1104377 0,47.1637527 0,44.7774154 L0,30.3343308 C0,27.9499325 1.93176276,26.0013085 4.30173166,26.0013085 L5.77556659,26.0013085 C7.94831868,26.0013085 9.81273911,24.8743058 10.8358615,22.9441017 C12.8388147,19.1617353 15.5921538,15.7526128 18.9299282,12.860215 L16.0346891,1.96827945 C15.9240553,1.55625697 15.9870685,1.16023065 16.2160324,0.804437122 C16.4493255,0.447674125 16.7850751,0.230998772 17.2001924,0.165075175 C22.5014766,-0.650729341 27.7118487,1.61006226 30.816811,5.77827559" id="Pig" fill="#009688"></path>
                <path d="M47,55 C56.3884722,55 64,47.3885807 64,38.0002424 C64,33.9882356 62.6065653,30.3030074 60.28175,27.395454 L60.269629,27.3750909 L60.2672047,27.3770302 L45.6278984,39.2831149 L39.5363489,35.6085531 L37.7327382,37.4116531 L45.6278984,45.3067007 L60.0504806,30.8843242 C61.2102216,32.9996578 61.8754242,35.4223765 61.8754242,38.0002424 C61.8754242,46.2026751 55.2025497,52.8754545 47,52.8754545 C38.7974503,52.8754545 32.1245758,46.2026751 32.1245758,38.0002424 C32.1245758,29.7978097 38.7974503,23.1250303 47,23.1250303 C50.804067,23.1250303 54.2769871,24.5620802 56.909192,26.9208008 L58.577047,25.5642335 C55.5419388,22.7361929 51.4760574,21 47,21 C37.611043,21 30,28.6119041 30,38.0002424 C30,47.3885807 37.611043,55 47,55" id="Checkmark" fill="#FFFFFE"></path>
            </g>
        </g>
    </g>
</svg>