<?xml version="1.0" encoding="UTF-8"?>
<svg width="320px" height="78px" viewBox="0 0 320 78" version="1.1" xmlns="http://www.w3.org/2000/svg" xmlns:xlink="http://www.w3.org/1999/xlink">
    <!-- Generator: Sketch 63.1 (92452) - https://sketch.com -->
    <title>Logo w/text</title>
    <desc>Created with Sketch.</desc>
    <g id="++StyleGuide++" stroke="none" stroke-width="1" fill="none" fill-rule="evenodd">
        <g id="Symbols" transform="translate(-36.000000, -147.000000)">
            <g id="Logo-w/text" transform="translate(36.000000, 147.000000)">
                <g id="Group">
                    <g id="EasyChecking_Icon">
                        <g>
                            <path d="M30.816811,5.77827559 C35.6442938,3.92126602 40.9773251,2.89024035 46.5830928,2.89024035 C68.349576,2.89024035 86,18.4133086 86,37.5558731 C86,47.6712674 81.0700606,56.7755101 73.2126541,63.1133853 L69.7911829,76.9049897 C69.6290803,77.5559852 69.0643667,78 68.4010448,78 L62.0367139,78 C61.3729109,78 60.8081974,77.5559852 60.6465758,76.9049897 L59.0462335,70.4522329 C55.1278721,71.5986248 50.9401414,72.2215059 46.5830928,72.2215059 C42.2294114,72.2215059 38.0421617,71.5986248 34.1233192,70.4522329 L32.523458,76.9049897 C32.3618364,77.5559852 31.7966418,78 31.1328389,78 L24.768989,78 C24.105186,78 23.5399915,77.5559852 23.3783699,76.9049897 L19.9573797,63.1090227 C16.1568674,60.0440602 13.0403607,56.3314953 10.8358615,52.1695835 C9.81273911,50.2369557 7.94831868,49.1104377 5.77556659,49.1104377 L4.30173166,49.1104377 C1.93561089,49.1104377 0,47.1637527 0,44.7774154 L0,30.3343308 C0,27.9499325 1.93176276,26.0013085 4.30173166,26.0013085 L5.77556659,26.0013085 C7.94831868,26.0013085 9.81273911,24.8743058 10.8358615,22.9441017 C12.8388147,19.1617353 15.5921538,15.7526128 18.9299282,12.860215 L16.0346891,1.96827945 C15.9240553,1.55625697 15.9870685,1.16023065 16.2160324,0.804437122 C16.4493255,0.447674125 16.7850751,0.230998772 17.2001924,0.165075175 C22.5014766,-0.650729341 27.7118487,1.61006226 30.816811,5.77827559" id="Pig" fill="#009688"></path>
                            <path d="M47,55 C56.3884722,55 64,47.3885807 64,38.0002424 C64,33.9882356 62.6065653,30.3030074 60.28175,27.395454 L60.269629,27.3750909 L60.2672047,27.3770302 L45.6278984,39.2831149 L39.5363489,35.6085531 L37.7327382,37.4116531 L45.6278984,45.3067007 L60.0504806,30.8843242 C61.2102216,32.9996578 61.8754242,35.4223765 61.8754242,38.0002424 C61.8754242,46.2026751 55.2025497,52.8754545 47,52.8754545 C38.7974503,52.8754545 32.1245758,46.2026751 32.1245758,38.0002424 C32.1245758,29.7978097 38.7974503,23.1250303 47,23.1250303 C50.804067,23.1250303 54.2769871,24.5620802 56.909192,26.9208008 L58.577047,25.5642335 C55.5419388,22.7361929 51.4760574,21 47,21 C37.611043,21 30,28.6119041 30,38.0002424 C30,47.3885807 37.611043,55 47,55" id="Checkmark" fill="#FFFFFE"></path>
                        </g>
                    </g>
                    <path d="M119.441406,51 L119.441406,46.7636719 L107.558594,46.7636719 L107.558594,39.9082031 L117.683594,39.9082031 L117.683594,35.7773438 L107.558594,35.7773438 L107.558594,29.6777344 L119.40625,29.6777344 L119.40625,25.40625 L102.285156,25.40625 L102.285156,51 L119.441406,51 Z M127.914062,51.3515625 C129.882812,51.3515625 131.482422,50.6660156 132.712891,49.2949219 C132.818359,49.9746094 132.988281,50.5429688 133.222656,51 L133.222656,51 L138.355469,51 L138.355469,50.7011719 C137.863281,49.7753906 137.611328,48.4101562 137.599609,46.6054688 L137.599609,46.6054688 L137.599609,38.3613281 C137.599609,36.2285156 136.911133,34.5732422 135.53418,33.3955078 C134.157227,32.2177734 132.296875,31.6289062 129.953125,31.6289062 C128.40625,31.6289062 127.011719,31.8955078 125.769531,32.4287109 C124.527344,32.9619141 123.566406,33.6972656 122.886719,34.6347656 C122.207031,35.5722656 121.867188,36.5917969 121.867188,37.6933594 L121.867188,37.6933594 L126.947266,37.6933594 C126.947266,36.9785156 127.19043,36.4160156 127.676758,36.0058594 C128.163086,35.5957031 128.833984,35.390625 129.689453,35.390625 C130.662109,35.390625 131.374023,35.6542969 131.825195,36.1816406 C132.276367,36.7089844 132.501953,37.4121094 132.501953,38.2910156 L132.501953,38.2910156 L132.501953,39.3808594 L130.164062,39.3808594 C127.339844,39.3925781 125.180664,39.9375 123.686523,41.015625 C122.192383,42.09375 121.445312,43.640625 121.445312,45.65625 C121.445312,47.296875 122.057617,48.65625 123.282227,49.734375 C124.506836,50.8125 126.050781,51.3515625 127.914062,51.3515625 Z M129.021484,47.4667969 C128.248047,47.4667969 127.638672,47.2617188 127.193359,46.8515625 C126.748047,46.4414062 126.525391,45.9199219 126.525391,45.2871094 L126.525391,45.2871094 L126.542969,44.9882812 C126.707031,43.2304688 128.060547,42.3515625 130.603516,42.3515625 L130.603516,42.3515625 L132.501953,42.3515625 L132.501953,45.6210938 C132.197266,46.1835938 131.728516,46.6318359 131.095703,46.9658203 C130.462891,47.2998047 129.771484,47.4667969 129.021484,47.4667969 Z M148.744141,51.3515625 C151.099609,51.3515625 153.021484,50.8154297 154.509766,49.7431641 C155.998047,48.6708984 156.742188,47.2675781 156.742188,45.5332031 C156.742188,43.1074219 155.400391,41.4023438 152.716797,40.4179688 C151.849609,40.1015625 150.783203,39.8173828 149.517578,39.5654297 C148.251953,39.3134766 147.352539,39.0146484 146.819336,38.6689453 C146.286133,38.3232422 146.019531,37.8691406 146.019531,37.3066406 C146.019531,36.7089844 146.253906,36.2167969 146.722656,35.8300781 C147.191406,35.4433594 147.853516,35.25 148.708984,35.25 C149.705078,35.25 150.4375,35.4873047 150.90625,35.9619141 C151.375,36.4365234 151.609375,37.0371094 151.609375,37.7636719 L151.609375,37.7636719 L156.689453,37.7636719 C156.689453,35.9472656 155.96582,34.4707031 154.518555,33.3339844 C153.071289,32.1972656 151.140625,31.6289062 148.726562,31.6289062 C146.464844,31.6289062 144.633789,32.1943359 143.233398,33.3251953 C141.833008,34.4560547 141.132812,35.8652344 141.132812,37.5527344 C141.132812,40.4472656 143.394531,42.3691406 147.917969,43.3183594 C149.277344,43.5996094 150.264648,43.9189453 150.879883,44.2763672 C151.495117,44.6337891 151.802734,45.1230469 151.802734,45.7441406 C151.802734,46.3417969 151.553711,46.8251953 151.055664,47.1943359 C150.557617,47.5634766 149.822266,47.7480469 148.849609,47.7480469 C147.806641,47.7480469 146.974609,47.5078125 146.353516,47.0273438 C145.732422,46.546875 145.398438,45.8554688 145.351562,44.953125 L145.351562,44.953125 L140.535156,44.953125 C140.535156,46.1015625 140.886719,47.1708984 141.589844,48.1611328 C142.292969,49.1513672 143.262695,49.9306641 144.499023,50.4990234 C145.735352,51.0673828 147.150391,51.3515625 148.744141,51.3515625 Z M162.384766,58.6816406 C164.998047,58.6816406 166.873047,57.4394531 168.009766,54.9550781 L168.009766,54.9550781 L168.431641,53.953125 L176.078125,31.9804688 L170.628906,31.9804688 L167.113281,43.8105469 L163.580078,31.9804688 L158.113281,31.9804688 L164.775391,51.0527344 L164.177734,52.6171875 C163.908203,53.296875 163.536133,53.7832031 163.061523,54.0761719 C162.586914,54.3691406 161.869141,54.515625 160.908203,54.515625 L160.908203,54.515625 L160.134766,54.4980469 L160.134766,58.3476562 C160.896484,58.5703125 161.646484,58.6816406 162.384766,58.6816406 Z M188.066406,51.3515625 C190.785156,51.3515625 192.961914,50.6367188 194.59668,49.2070312 C196.231445,47.7773438 197.195312,45.7148438 197.488281,43.0195312 L197.488281,43.0195312 L195.308594,43.0195312 C195.039062,45.1875 194.330078,46.8134766 193.181641,47.8974609 C192.033203,48.9814453 190.328125,49.5234375 188.066406,49.5234375 C185.78125,49.5234375 183.967773,48.6445312 182.625977,46.8867188 C181.28418,45.1289062 180.613281,42.7734375 180.613281,39.8203125 L180.613281,39.8203125 L180.613281,36.6914062 C180.613281,33.6328125 181.301758,31.2363281 182.678711,29.5019531 C184.055664,27.7675781 185.904297,26.9003906 188.224609,26.9003906 C192.408203,26.9003906 194.769531,29.0742188 195.308594,33.421875 L195.308594,33.421875 L197.488281,33.421875 C197.230469,30.8085938 196.307617,28.7607422 194.719727,27.2783203 C193.131836,25.7958984 190.966797,25.0546875 188.224609,25.0546875 C186.279297,25.0546875 184.55957,25.5322266 183.06543,26.4873047 C181.571289,27.4423828 180.425781,28.7988281 179.628906,30.5566406 C178.832031,32.3144531 178.433594,34.3300781 178.433594,36.6035156 L178.433594,36.6035156 L178.433594,39.9257812 C178.445312,42.1640625 178.849609,44.1533203 179.646484,45.8935547 C180.443359,47.6337891 181.571289,48.9785156 183.030273,49.9277344 C184.489258,50.8769531 186.167969,51.3515625 188.066406,51.3515625 Z M204.34375,51 L204.34375,37.9746094 C204.824219,36.5917969 205.56543,35.4931641 206.567383,34.6787109 C207.569336,33.8642578 208.720703,33.4570312 210.021484,33.4570312 C211.580078,33.4570312 212.713867,33.8730469 213.422852,34.7050781 C214.131836,35.5371094 214.492188,36.8027344 214.503906,38.5019531 L214.503906,38.5019531 L214.503906,51 L216.595703,51 L216.595703,38.5195312 C216.583984,36.2226562 216.080078,34.5 215.083984,33.3515625 C214.087891,32.203125 212.570312,31.6289062 210.53125,31.6289062 C209.253906,31.6289062 208.076172,31.9394531 206.998047,32.5605469 C205.919922,33.1816406 205.035156,34.0605469 204.34375,35.1972656 L204.34375,35.1972656 L204.34375,24 L202.251953,24 L202.251953,51 L204.34375,51 Z M229.375,51.3515625 C232.316406,51.3515625 234.560547,50.2324219 236.107422,47.9941406 L236.107422,47.9941406 L234.789062,46.9921875 C234.085938,47.8945312 233.303711,48.5507812 232.442383,48.9609375 C231.581055,49.3710938 230.587891,49.5761719 229.462891,49.5761719 C227.587891,49.5761719 226.032227,48.8583984 224.795898,47.4228516 C223.55957,45.9873047 222.941406,44.1914062 222.941406,42.0351562 L222.941406,42.0351562 L222.941406,41.6308594 L236.511719,41.6308594 L236.511719,40.453125 C236.511719,37.7226562 235.834961,35.5693359 234.481445,33.9931641 C233.12793,32.4169922 231.296875,31.6289062 228.988281,31.6289062 C227.511719,31.6289062 226.140625,32.0478516 224.875,32.8857422 C223.609375,33.7236328 222.62207,34.875 221.913086,36.3398438 C221.204102,37.8046875 220.849609,39.4511719 220.849609,41.2792969 L220.849609,41.2792969 L220.849609,42.0351562 C220.849609,43.8046875 221.212891,45.4013672 221.939453,46.8251953 C222.666016,48.2490234 223.682617,49.359375 224.989258,50.15625 C226.295898,50.953125 227.757812,51.3515625 229.375,51.3515625 Z M234.419922,39.8378906 L223.011719,39.8378906 C223.246094,37.8808594 223.905273,36.3222656 224.989258,35.1621094 C226.073242,34.0019531 227.40625,33.421875 228.988281,33.421875 C230.582031,33.421875 231.871094,33.9960938 232.855469,35.1445312 C233.839844,36.2929688 234.361328,37.78125 234.419922,39.609375 L234.419922,39.609375 L234.419922,39.8378906 Z M247.638672,51.3515625 C248.904297,51.3515625 250.09082,51.0820312 251.198242,50.5429688 C252.305664,50.0039062 253.193359,49.2568359 253.861328,48.3017578 C254.529297,47.3466797 254.892578,46.2890625 254.951172,45.1289062 L254.951172,45.1289062 L252.929688,45.1289062 C252.847656,46.4414062 252.311523,47.5107422 251.321289,48.3369141 C250.331055,49.1630859 249.103516,49.5761719 247.638672,49.5761719 C245.728516,49.5761719 244.249023,48.8964844 243.200195,47.5371094 C242.151367,46.1777344 241.626953,44.2851562 241.626953,41.859375 L241.626953,41.859375 L241.626953,41.2441406 C241.626953,38.7714844 242.151367,36.8496094 243.200195,35.4785156 C244.249023,34.1074219 245.722656,33.421875 247.621094,33.421875 C249.109375,33.421875 250.342773,33.8789062 251.321289,34.7929688 C252.299805,35.7070312 252.835938,36.9082031 252.929688,38.3964844 L252.929688,38.3964844 L254.951172,38.3964844 C254.857422,36.3691406 254.133789,34.734375 252.780273,33.4921875 C251.426758,32.25 249.707031,31.6289062 247.621094,31.6289062 C245.980469,31.6289062 244.547852,32.0214844 243.323242,32.8066406 C242.098633,33.5917969 241.158203,34.7050781 240.501953,36.1464844 C239.845703,37.5878906 239.517578,39.2460938 239.517578,41.1210938 L239.517578,41.1210938 L239.517578,41.7539062 C239.517578,44.6835938 240.24707,47.015625 241.706055,48.75 C243.165039,50.484375 245.142578,51.3515625 247.638672,51.3515625 Z M261.261719,51 L261.261719,43.7402344 L263.669922,41.4199219 L271.369141,51 L273.882812,51 L265.111328,39.9960938 L273.179688,31.9804688 L270.525391,31.9804688 L263.248047,39.1347656 L261.261719,41.2792969 L261.261719,24 L259.152344,24 L259.152344,51 L261.261719,51 Z M278.101562,27.8847656 C278.546875,27.8847656 278.901367,27.75 279.165039,27.4804688 C279.428711,27.2109375 279.560547,26.8769531 279.560547,26.4785156 C279.560547,26.0800781 279.428711,25.7431641 279.165039,25.4677734 C278.901367,25.1923828 278.546875,25.0546875 278.101562,25.0546875 C277.65625,25.0546875 277.304688,25.1923828 277.046875,25.4677734 C276.789062,25.7431641 276.660156,26.0800781 276.660156,26.4785156 C276.660156,26.8769531 276.789062,27.2109375 277.046875,27.4804688 C277.304688,27.75 277.65625,27.8847656 278.101562,27.8847656 Z M279.138672,51 L279.138672,31.9804688 L277.029297,31.9804688 L277.029297,51 L279.138672,51 Z M286.943359,51 L286.943359,37.9746094 C287.423828,36.5917969 288.165039,35.4931641 289.166992,34.6787109 C290.168945,33.8642578 291.320312,33.4570312 292.621094,33.4570312 C294.179688,33.4570312 295.313477,33.8730469 296.022461,34.7050781 C296.731445,35.5371094 297.091797,36.8027344 297.103516,38.5019531 L297.103516,38.5019531 L297.103516,51 L299.195312,51 L299.195312,38.5195312 C299.183594,36.2226562 298.679688,34.5 297.683594,33.3515625 C296.6875,32.203125 295.169922,31.6289062 293.130859,31.6289062 C291.841797,31.6289062 290.664062,31.9365234 289.597656,32.5517578 C288.53125,33.1669922 287.640625,34.0605469 286.925781,35.2324219 L286.925781,35.2324219 L286.855469,31.9804688 L284.851562,31.9804688 L284.851562,51 L286.943359,51 Z M311.482422,58.5761719 C313.826172,58.5761719 315.683594,57.8613281 317.054688,56.4316406 C318.425781,55.0019531 319.111328,53.0625 319.111328,50.6132812 L319.111328,50.6132812 L319.111328,31.9804688 L317.142578,31.9804688 L317.037109,34.7226562 C315.689453,32.6601562 313.720703,31.6289062 311.130859,31.6289062 C308.869141,31.6289062 307.079102,32.4990234 305.760742,34.2392578 C304.442383,35.9794922 303.783203,38.3378906 303.783203,41.3144531 L303.783203,41.3144531 L303.783203,41.5957031 C303.783203,44.5839844 304.451172,46.9570312 305.787109,48.7148438 C307.123047,50.4726562 308.892578,51.3515625 311.095703,51.3515625 C313.673828,51.3515625 315.636719,50.4140625 316.984375,48.5390625 L316.984375,48.5390625 L316.984375,50.9296875 C316.949219,52.7695312 316.439453,54.2080078 315.455078,55.2451172 C314.470703,56.2822266 313.099609,56.8007812 311.341797,56.8007812 C309.291016,56.8007812 307.521484,55.8867188 306.033203,54.0585938 L306.033203,54.0585938 L304.855469,55.3242188 C305.546875,56.3085938 306.493164,57.0966797 307.694336,57.6884766 C308.895508,58.2802734 310.158203,58.5761719 311.482422,58.5761719 Z M311.482422,49.5234375 C309.712891,49.5234375 308.341797,48.8232422 307.369141,47.4228516 C306.396484,46.0224609 305.910156,44.109375 305.910156,41.6835938 C305.910156,38.9765625 306.402344,36.9287109 307.386719,35.5400391 C308.371094,34.1513672 309.748047,33.4570312 311.517578,33.4570312 C312.818359,33.4570312 313.931641,33.7763672 314.857422,34.4150391 C315.783203,35.0537109 316.492188,35.9824219 316.984375,37.2011719 L316.984375,37.2011719 L316.984375,46.0429688 C315.90625,48.3632812 314.072266,49.5234375 311.482422,49.5234375 Z" id="EasyChecking" fill="#212121" fill-rule="nonzero"></path>
                </g>
            </g>
        </g>
    </g>
</svg>